<svg xmlns="http://www.w3.org/2000/svg" viewBox="0 0 64 64" fill="none">
  <!-- Lobster Guard Favicon - Indigo #6366F1 -->
  <defs>
    <linearGradient id="g" x1="0" y1="0" x2="1" y2="1">
      <stop offset="0%" stop-color="#818CF8"/>
      <stop offset="100%" stop-color="#6366F1"/>
    </linearGradient>
  </defs>
  <!-- Body -->
  <ellipse cx="32" cy="36" rx="12" ry="16" fill="url(#g)"/>
  <!-- Head -->
  <circle cx="32" cy="18" r="9" fill="url(#g)"/>
  <!-- Eyes -->
  <circle cx="28" cy="16" r="2" fill="#fff"/>
  <circle cx="36" cy="16" r="2" fill="#fff"/>
  <circle cx="28.5" cy="16" r="1" fill="#312E81"/>
  <circle cx="36.5" cy="16" r="1" fill="#312E81"/>
  <!-- Antennae -->
  <path d="M28 10 Q24 2 18 4" stroke="#6366F1" stroke-width="2.5" stroke-linecap="round" fill="none"/>
  <path d="M36 10 Q40 2 46 4" stroke="#6366F1" stroke-width="2.5" stroke-linecap="round" fill="none"/>
  <!-- Claws -->
  <path d="M20 28 Q12 22 10 26 Q8 30 14 30 Z" fill="#818CF8"/>
  <path d="M44 28 Q52 22 54 26 Q56 30 50 30 Z" fill="#818CF8"/>
  <!-- Arms to claws -->
  <path d="M22 30 L14 28" stroke="#6366F1" stroke-width="2.5" stroke-linecap="round"/>
  <path d="M42 30 L50 28" stroke="#6366F1" stroke-width="2.5" stroke-linecap="round"/>
  <!-- Tail segments -->
  <path d="M32 52 Q32 56 28 58" stroke="#6366F1" stroke-width="2.5" stroke-linecap="round" fill="none"/>
  <path d="M28 58 Q24 60 22 58 Q20 56 24 54" stroke="#6366F1" stroke-width="2.5" stroke-linecap="round" fill="none"/>
  <!-- Legs -->
  <path d="M24 38 L16 42" stroke="#6366F1" stroke-width="2" stroke-linecap="round"/>
  <path d="M24 44 L16 48" stroke="#6366F1" stroke-width="2" stroke-linecap="round"/>
  <path d="M40 38 L48 42" stroke="#6366F1" stroke-width="2" stroke-linecap="round"/>
  <path d="M40 44 L48 48" stroke="#6366F1" stroke-width="2" stroke-linecap="round"/>
</svg>
